# xmcd
#
# Track frame offsets: 
#        150
#        22902
#        38147
#        48362
#        58444
#        76152
#        88230
#        98706
#        116549
#        131171
#        145789
#        155960
#        175685
#        191393
#        211329
#        223121
#
# Disc length: 3115 seconds
#
# Revision: 0
# Processed by: cddbd v1.5.2PL0 Copyright (c) Steve Scherf et al.
# Submitted via: ExactAudioCopy v0.99pb4
#
DISCID=e20c2910
DTITLE=Red Sovine - 16 Greatest Hits
DYEAR=1986
DGENRE=Classic Country
TTITLE0=Teddy Bear
TTITLE1=Phantom 309
TTITLE2=Class of 49
TTITLE3=In Your Heart
TTITLE4=Giddy-Up-Go
TTITLE5=I Didn't Jump the Fence
TTITLE6=Normally, Norma Loves Me
TTITLE7=Little Rosa
TTITLE8=It'll Come Back
TTITLE9=Dream House for Sale
TTITLE10=Tell Maude I Slipped
TTITLE11=Little Joe
TTITLE12=Daddy's Girl
TTITLE13=Daddy
TTITLE14=Freightliner Fever
TTITLE15=I Know You're Married But I Love You Still
EXTD=
EXTT0=
EXTT1=
EXTT2=
EXTT3=
EXTT4=
EXTT5=
EXTT6=
EXTT7=
EXTT8=
EXTT9=
EXTT10=
EXTT11=
EXTT12=
EXTT13=
EXTT14=
EXTT15=
PLAYORDER=
